<?xml version="1.0" standalone="no"?>
<!DOCTYPE svg PUBLIC "-//W3C//DTD SVG 20010904//EN"
 "http://www.w3.org/TR/2001/REC-SVG-20010904/DTD/svg10.dtd">
<svg version="1.0" xmlns="http://www.w3.org/2000/svg"
 width="512.000000pt" height="512.000000pt" viewBox="0 0 512.000000 512.000000"
 preserveAspectRatio="xMidYMid meet">

<g transform="translate(0.000000,512.000000) scale(0.100000,-0.100000)"
fill="#000000" stroke="none">
<path d="M2548 4379 c-2 -15 -22 -32 -60 -53 -119 -64 -209 -117 -265 -156
-32 -22 -65 -45 -73 -50 -8 -5 -39 -25 -67 -45 -29 -19 -57 -35 -63 -35 -6 0
-13 -7 -16 -15 -4 -8 -10 -15 -15 -15 -6 0 -22 -8 -37 -19 -100 -69 -265 -173
-294 -185 -34 -15 -48 -32 -48 -61 0 -8 33 -24 83 -39 45 -15 96 -31 112 -37
17 -6 38 -12 49 -14 10 -3 20 -6 21 -7 1 -2 5 -70 8 -153 3 -82 8 -157 12
-166 9 -23 -5 -26 -152 -39 -70 -6 -143 -13 -160 -16 -36 -5 -41 -21 -19 -57
11 -17 14 -62 13 -198 0 -96 4 -182 9 -190 9 -15 11 -20 13 -44 2 -24 53 -43
137 -51 43 -5 82 -7 85 -6 7 1 2 -131 -7 -168 -3 -14 -8 -47 -10 -75 -2 -27
-8 -81 -14 -120 -5 -38 -21 -158 -35 -265 -14 -107 -33 -244 -42 -305 -8 -60
-17 -130 -19 -155 -3 -51 -9 -98 -24 -185 -5 -33 -12 -89 -15 -125 -3 -36 -10
-85 -15 -110 -14 -70 -60 -439 -61 -495 -2 -76 -2 -78 26 -73 14 3 25 1 25 -3
0 -5 9 -9 20 -9 11 0 20 5 20 11 0 5 5 7 10 4 6 -4 10 -3 9 2 -1 4 1 19 4 33
3 14 8 41 11 60 2 19 11 80 20 135 9 55 17 113 18 130 l3 29 212 1 213 0 0
-25 c0 -14 -7 -68 -15 -120 -19 -126 -19 -129 11 -142 20 -9 27 -9 34 2 5 8
23 13 44 12 32 -1 36 1 41 31 8 48 35 236 35 245 0 4 91 8 203 7 l202 0 2 -40
c1 -22 2 -118 3 -212 1 -160 3 -173 20 -173 24 0 48 39 53 86 2 24 4 11 5 -32
2 -83 16 -104 57 -86 18 8 25 20 26 39 2 96 -2 345 -7 378 l-6 41 208 2 c114
2 215 7 225 13 26 13 34 -7 48 -121 18 -133 41 -253 53 -267 16 -19 36 -16 43
8 5 16 10 18 21 8 42 -35 57 36 30 138 -8 28 -12 54 -10 56 3 2 -1 37 -7 78
-6 41 -15 103 -20 139 -10 65 -32 235 -44 340 -4 30 -8 57 -10 60 -2 3 -6 32
-9 65 -4 33 -11 87 -16 120 -5 33 -11 83 -14 110 -3 28 -8 61 -10 75 -8 47
-25 165 -31 214 -3 27 -8 53 -11 58 -3 4 -7 25 -9 45 -2 21 -11 92 -19 158 -9
66 -22 169 -29 228 l-14 109 34 16 c18 9 33 19 33 23 0 4 26 7 59 7 62 0 103
17 100 42 -1 8 1 27 5 42 4 14 3 34 -2 45 -6 10 -13 65 -17 123 -4 58 -9 107
-11 109 -2 3 3 15 12 28 8 13 14 38 12 55 -3 31 -6 33 -88 55 -47 13 -102 29
-122 35 l-38 10 -1 107 c-1 58 -2 133 -3 166 l-1 60 80 11 c44 7 106 14 138
17 32 2 60 7 63 10 3 3 7 20 8 37 2 28 -6 39 -58 86 -53 47 -171 133 -341 248
-27 18 -60 43 -72 55 -13 12 -23 19 -23 15 0 -4 -12 4 -27 18 -16 14 -62 47
-103 74 -41 26 -87 57 -101 68 -15 12 -39 30 -55 41 -15 11 -53 39 -85 63 -63
47 -96 54 -101 21z m90 -156 c22 -27 53 -66 68 -88 15 -22 35 -47 45 -56 11
-9 19 -19 19 -23 0 -4 11 -22 25 -40 14 -18 25 -38 25 -44 0 -6 6 -12 13 -15
34 -12 -27 -23 -188 -32 -69 -3 -145 -10 -220 -20 -11 -1 -60 -6 -110 -9 -49
-4 -115 -11 -145 -16 -30 -5 -89 -14 -130 -20 -41 -7 -102 -19 -134 -26 -32
-8 -61 -13 -63 -10 -5 4 115 78 212 131 71 39 159 93 385 236 69 43 132 79
141 79 9 0 34 -21 57 -47z m-198 -13 c-35 -24 -54 -31 -30 -11 14 11 30 21 35
21 6 0 3 -5 -5 -10z m-72 -43 c-21 -20 -69 -49 -74 -44 -2 2 13 15 34 29 40
28 62 36 40 15z m641 -154 c167 -118 174 -125 86 -78 -83 45 -180 112 -214
149 -43 46 -11 28 128 -71z m79 -131 c28 -18 52 -35 52 -37 0 -13 -153 69
-158 84 -5 15 36 -3 106 -47z m177 -62 c17 -14 42 -33 55 -42 14 -10 -2 -5
-34 12 -33 16 -63 27 -67 24 -5 -3 -6 2 -3 11 4 8 0 23 -7 33 -13 16 -12 16 6
2 11 -8 34 -26 50 -40z m-505 -30 c-6 -11 -6 -20 -1 -22 5 -2 11 -85 14 -185
3 -147 2 -183 -9 -183 -7 0 -33 -6 -56 -14 -24 -8 -77 -17 -119 -21 l-76 -6 1
163 1 163 -25 -3 c-14 -1 -65 -7 -115 -12 -49 -6 -106 -11 -125 -12 -41 -1
-108 -27 -114 -45 -3 -6 -6 -69 -7 -139 -1 -86 -5 -132 -14 -140 -6 -7 -41
-14 -76 -16 l-64 -3 -3 166 c-3 183 -6 174 65 194 18 5 22 3 17 -9 -3 -9 -10
-16 -15 -16 -5 0 -9 -9 -9 -20 0 -29 10 -25 60 25 47 48 66 55 72 29 3 -14 6
-13 28 4 23 17 47 23 175 38 22 3 55 10 72 15 18 6 45 9 60 8 16 -2 34 0 41 5
24 15 26 -4 2 -29 l-23 -25 22 0 c12 0 34 11 48 24 32 30 53 23 24 -8 -12 -12
-21 -28 -21 -34 0 -23 30 -11 57 23 15 19 31 35 36 35 17 0 4 -26 -39 -77 -32
-37 -44 -59 -39 -71 5 -14 11 -12 35 18 15 19 27 37 25 41 -2 3 2 6 10 6 27 0
16 -85 -11 -90 -11 -2 -7 -17 12 -38 8 -9 16 -34 17 -55 2 -22 7 -38 12 -37 6
2 11 77 13 175 2 141 5 175 19 190 20 22 37 13 23 -12z m-590 -54 c0 -3 -4 -8
-10 -11 -5 -3 -10 -1 -10 4 0 6 5 11 10 11 6 0 10 -2 10 -4z m675 -36 c3 -5 1
-10 -4 -10 -6 0 -11 5 -11 10 0 6 2 10 4 10 3 0 8 -4 11 -10z m106 -61 c5 -3
-2 -22 -16 -43 -14 -20 -34 -55 -45 -77 -12 -22 -25 -37 -30 -34 -6 4 -10 1
-10 -6 0 -7 -3 -9 -6 -6 -4 4 -1 13 6 22 7 8 10 15 6 15 -4 0 9 25 29 56 20
31 39 70 42 87 6 25 8 27 11 12 2 -11 8 -23 13 -26z m79 24 c0 -10 -5 -25 -10
-33 -7 -11 -10 -7 -10 18 0 17 5 32 10 32 6 0 10 -8 10 -17z m90 10 c-1 -18
-18 -35 -24 -24 -4 6 -4 16 -1 21 7 12 25 13 25 3z m-831 -120 c-30 -52 -39
-60 -39 -40 0 9 3 17 8 17 4 0 15 14 24 30 9 17 20 30 23 30 4 0 -3 -17 -16
-37z m676 -3 c-8 -16 -15 -32 -16 -35 0 -3 -8 -25 -19 -51 -11 -25 -20 -52
-20 -60 0 -16 -27 -30 -37 -20 -8 8 9 46 59 129 41 69 61 91 33 37z m-637 -41
c-34 -83 -54 -114 -62 -94 -3 9 8 36 29 66 18 27 37 59 40 70 4 11 9 19 11 16
2 -2 -6 -28 -18 -58z m714 32 c-8 -4 -13 -11 -13 -15 1 -3 -14 -36 -32 -74
-19 -37 -32 -73 -30 -79 3 -8 -4 -13 -16 -13 -12 0 -21 1 -21 3 0 2 20 44 45
95 31 64 50 92 63 92 13 0 14 -2 4 -9z m-686 -113 c-9 -20 -22 -38 -30 -41
-11 -4 -7 8 12 43 30 54 41 53 18 -2z m688 5 c-12 -57 -26 -93 -35 -93 -16 0
-10 33 13 78 13 23 24 42 26 42 1 0 0 -12 -4 -27z m61 -57 c-16 -50 -31 -67
-47 -50 -3 3 6 32 20 65 32 76 52 65 27 -15z m-322 -213 c-2 -58 -4 -108 -6
-109 -1 -1 -30 -4 -64 -8 l-63 -7 0 44 c0 24 3 78 6 120 l7 76 51 9 c38 6 54
5 62 -4 7 -9 9 -53 7 -121z m-189 70 c-12 -170 -17 -203 -27 -204 -7 -1 -26
-3 -43 -5 l-32 -2 -1 123 -2 124 43 4 c24 2 48 4 54 5 7 1 10 -15 8 -45z m361
-53 c-4 -41 -8 -96 -9 -123 -1 -36 -5 -47 -17 -47 -12 0 -18 14 -23 53 -3 28
-9 73 -12 98 -7 55 -8 67 -6 96 2 20 5 20 38 10 l37 -11 -8 -76z m-580 80 c-3
-6 5 -10 19 -10 20 0 25 -6 30 -37 9 -60 4 -182 -8 -197 -6 -8 -35 -16 -64
-19 -43 -3 -52 -2 -48 10 4 8 6 64 6 124 0 96 2 110 18 115 9 3 24 9 32 14 20
12 22 12 15 0z m-125 -130 c0 -68 4 -120 11 -127 7 -7 -9 -12 -52 -17 -34 -3
-65 -3 -68 0 -3 3 -8 59 -9 125 -3 103 -2 119 12 119 9 0 16 4 16 8 0 5 20 9
45 9 l45 0 0 -117z m809 93 c5 -11 5 -26 0 -42 -6 -13 -9 -31 -8 -40 1 -9 -1
-46 -5 -83 -7 -59 -11 -68 -29 -68 -18 0 -19 5 -14 44 4 25 9 81 13 125 7 82
21 103 43 64z m-994 -41 c-1 -23 -2 -80 -3 -127 l-2 -85 -47 0 -48 0 3 107 c4
154 4 153 55 150 l42 -3 0 -42z m1057 -92 c0 -111 -4 -132 -22 -114 -6 6 -6
34 1 78 6 37 9 90 7 116 -2 28 1 45 6 40 5 -5 8 -59 8 -120z m-1212 -1 l0
-120 -37 3 -38 3 -3 60 c-2 33 -7 83 -11 112 -9 57 -7 58 62 62 l27 1 0 -121z
m-159 103 c0 -4 2 -18 3 -32 11 -85 15 -187 9 -196 -11 -15 -83 -28 -83 -14 0
5 5 10 11 10 6 0 8 9 3 22 -6 21 -14 198 -9 208 5 8 65 10 66 2z m1446 -179
c-2 -32 -3 -6 -3 57 0 63 1 89 3 58 2 -32 2 -84 0 -115z m92 65 c-4 -29 -8
-75 -8 -101 -1 -27 -5 -46 -10 -43 -10 7 -12 119 -4 185 5 37 8 41 18 28 8
-11 9 -33 4 -69z m91 -58 c0 -119 0 -121 -21 -110 -19 11 -20 17 -13 113 6 85
14 116 32 117 1 0 2 -54 2 -120z m-595 -59 c3 -6 -9 -12 -27 -15 -149 -24
-462 -53 -653 -61 -117 -4 -227 -13 -354 -29 l-44 -6 23 20 c13 11 35 20 49
21 14 0 35 2 46 3 45 7 288 26 390 31 171 9 323 22 435 39 53 7 129 6 135 -3z
m190 -40 c3 -5 1 -12 -5 -16 -5 -3 -10 -1 -10 5 0 6 -5 8 -12 4 -7 -4 -8 -3
-4 4 9 14 23 15 31 3z m228 -42 c82 -20 98 -27 62 -24 -27 2 -68 9 -90 16 -22
6 -49 12 -60 13 -11 2 -29 6 -40 9 -11 4 -35 8 -52 9 -18 1 -33 5 -33 9 0 11
100 -3 213 -32z m-1123 -193 c8 -2 33 -6 55 -10 22 -4 60 -11 85 -17 54 -11
90 -17 108 -18 21 -2 9 -127 -17 -180 -9 -19 -33 -27 -26 -9 3 7 -25 38 -67
73 -39 33 -85 72 -102 88 -17 15 -33 27 -37 27 -4 0 -22 14 -40 32 l-34 31 30
-7 c17 -4 37 -8 45 -10z m520 -10 c0 -11 -132 -108 -138 -102 -7 7 7 20 82 77
36 26 56 36 56 25z m490 -2 c0 -2 -8 -17 -19 -32 -10 -15 -33 -51 -52 -80 -18
-29 -36 -51 -40 -50 -4 2 -33 38 -63 80 l-55 77 89 3 c49 2 100 4 114 5 14 2
26 0 26 -3z m-416 -287 l7 -239 -31 22 c-18 12 -42 32 -54 44 -13 11 -51 43
-85 69 l-62 48 6 66 c2 36 6 67 7 67 6 3 98 77 110 89 36 33 90 78 93 75 1 -2
5 -110 9 -241z m-610 123 c16 -14 43 -38 60 -55 17 -16 45 -40 61 -52 l30 -23
-26 -22 c-15 -13 -59 -45 -98 -73 -40 -27 -81 -58 -91 -67 -11 -10 -24 -18
-30 -18 -5 0 -13 -6 -17 -14 -4 -7 -19 -19 -32 -26 -13 -6 -21 -8 -18 -3 2 4
8 40 11 78 4 39 11 102 16 140 18 122 18 129 19 178 l1 49 43 -34 c23 -18 55
-44 71 -58z m367 37 c-10 -9 -11 -8 -5 6 3 10 9 15 12 12 3 -3 0 -11 -7 -18z
m734 -165 c8 -67 19 -130 22 -140 11 -29 -31 13 -94 95 -36 47 -53 78 -49 89
3 9 25 45 49 80 l42 63 7 -32 c4 -18 14 -88 23 -155z m-282 96 c15 -20 27 -42
27 -48 0 -6 -13 -31 -30 -55 -16 -24 -31 -50 -32 -57 -1 -7 -4 16 -7 52 -7 76
-2 166 8 153 4 -4 19 -25 34 -45z m210 -294 c53 -67 97 -123 97 -126 0 -3 -48
-3 -107 -2 -60 2 -136 3 -170 3 l-63 1 0 34 c0 23 13 54 38 93 22 32 49 77 62
99 18 30 27 38 35 30 6 -6 55 -66 108 -132z m-798 116 c-3 -5 -8 -44 -11 -87
-7 -109 -14 -163 -22 -164 -28 -2 -322 -5 -322 -2 0 1 26 22 57 45 32 24 64
48 73 55 8 6 58 46 110 87 85 66 132 94 115 66z m235 -165 c49 -42 90 -78 90
-80 0 -3 -46 -5 -103 -5 l-102 0 9 80 c5 44 11 80 12 80 2 0 44 -34 94 -75z
m90 -188 c-8 -8 -63 -51 -122 -96 -122 -92 -115 -94 -102 37 l7 61 68 3 c37 2
89 4 116 6 42 3 46 1 33 -11z m578 -27 c-11 -19 -29 -50 -40 -69 -10 -18 -32
-50 -48 -70 -15 -20 -31 -46 -35 -59 -5 -18 -10 -21 -20 -12 -11 9 -129 200
-143 232 -3 6 144 13 275 13 l32 0 -21 -35z m-943 -52 c-9 -136 -17 -213 -21
-217 -2 -3 -66 57 -141 133 -83 84 -133 140 -127 146 5 5 52 11 104 13 52 1
117 4 143 5 l48 2 -6 -82z m439 -138 c4 -80 11 -224 16 -320 12 -217 12 -200
1 -200 -4 0 -24 15 -43 33 -20 17 -97 88 -173 156 l-137 125 6 55 c4 31 11 58
17 59 13 5 168 127 243 191 33 28 61 50 62 48 1 -1 5 -67 8 -147z m180 88 c9
-18 37 -64 61 -103 68 -105 68 -107 40 -164 -14 -27 -25 -54 -25 -60 0 -6 -4
-11 -9 -11 -5 0 -14 -15 -22 -32 -7 -18 -20 -43 -30 -56 -17 -22 -17 -21 -23
50 -8 110 -18 408 -13 408 3 0 12 -15 21 -32z m-938 -35 c26 -32 82 -93 123
-135 l76 -77 -40 -35 c-22 -20 -56 -50 -76 -68 -20 -18 -56 -49 -79 -68 -24
-19 -68 -56 -99 -82 -30 -26 -57 -45 -60 -43 -3 4 8 86 25 185 5 31 24 146 29
180 4 29 17 146 17 157 0 14 18 43 27 43 5 0 30 -26 57 -57z m1353 -303 c31
-226 30 -229 -41 -102 -23 42 -53 95 -66 117 -60 106 -59 99 -24 155 18 28 32
54 32 58 0 3 12 24 27 45 l27 40 12 -79 c7 -44 21 -149 33 -234z m-163 -87
c32 -54 75 -122 96 -152 21 -30 38 -57 38 -60 0 -8 -356 -15 -369 -7 -6 4 -2
17 12 32 12 14 40 60 63 102 83 157 96 182 100 182 2 0 29 -44 60 -97z m-920
50 c-4 -21 -9 -90 -12 -153 -3 -63 -7 -116 -8 -118 -2 -1 -81 -1 -177 0 l-174
3 29 25 c112 96 198 169 230 195 21 17 52 42 69 58 42 36 51 34 43 -10z m158
-75 c7 -7 57 -53 111 -103 l98 -90 -69 -5 c-38 -3 -94 -4 -124 -2 l-55 4 9
104 c5 57 11 104 13 104 3 0 10 -6 17 -12z"/>
<path d="M2481 4179 c-40 -22 -123 -74 -183 -115 -61 -41 -112 -74 -115 -74
-5 0 -123 -81 -123 -85 0 -6 93 16 112 26 12 7 69 44 127 83 58 40 143 93 188
120 86 50 105 66 78 66 -9 0 -13 5 -10 10 8 14 10 14 -74 -31z"/>
<path d="M2489 4071 c-57 -38 -120 -83 -139 -100 -33 -28 -34 -30 -12 -31 20
0 125 63 251 149 26 18 37 51 17 51 -7 0 -59 -31 -117 -69z"/>
<path d="M2607 4018 c-12 -13 -27 -23 -33 -23 -5 0 -25 -12 -44 -27 l-35 -28
28 0 c15 0 46 14 69 30 22 17 47 30 55 30 17 0 13 32 -4 37 -7 3 -23 -6 -36
-19z"/>
<path d="M2040 3545 c-7 -8 -9 -22 -6 -31 5 -13 9 -14 21 -4 16 13 21 50 6 50
-5 0 -14 -7 -21 -15z"/>
<path d="M2590 3487 c0 -8 7 -18 16 -21 11 -4 14 -1 12 11 -4 21 -28 30 -28
10z"/>
<path d="M2042 3430 c0 -14 2 -19 5 -12 2 6 2 18 0 25 -3 6 -5 1 -5 -13z"/>
</g>
</svg>
